<svg width="400" height="300" viewBox="0 0 400 300" xmlns="http://www.w3.org/2000/svg">
  <defs>
    <linearGradient id="brainGradient" x1="0%" y1="0%" x2="100%" y2="100%">
      <stop offset="0%" style="stop-color:#667eea;stop-opacity:1" />
      <stop offset="100%" style="stop-color:#764ba2;stop-opacity:1" />
    </linearGradient>
    <linearGradient id="neuralGradient" x1="0%" y1="0%" x2="100%" y2="100%">
      <stop offset="0%" style="stop-color:#4ecdc4;stop-opacity:1" />
      <stop offset="100%" style="stop-color:#44a08d;stop-opacity:1" />
    </linearGradient>
    <radialGradient id="glowGradient" cx="50%" cy="50%" r="50%">
      <stop offset="0%" style="stop-color:#4ecdc4;stop-opacity:0.3" />
      <stop offset="100%" style="stop-color:#4ecdc4;stop-opacity:0" />
    </radialGradient>
  </defs>
  
  <!-- Background Glow -->
  <circle cx="200" cy="150" r="120" fill="url(#glowGradient)"/>
  
  <!-- Main Brain Structure -->
  <g transform="translate(200, 150)">
    <!-- Left Hemisphere -->
    <path d="M-80,-60 Q-60,-80 -40,-70 Q-20,-60 -10,-40 Q-5,-20 -10,0 Q-15,20 -25,35 Q-35,50 -50,60 Q-65,65 -80,60 Q-85,45 -85,30 Q-85,15 -80,0 Q-75,-15 -80,-30 Q-85,-45 -80,-60 Z" 
          fill="url(#brainGradient)" opacity="0.8"/>
    
    <!-- Right Hemisphere -->
    <path d="M80,-60 Q60,-80 40,-70 Q20,-60 10,-40 Q5,-20 10,0 Q15,20 25,35 Q35,50 50,60 Q65,65 80,60 Q85,45 85,30 Q85,15 80,0 Q75,-15 80,-30 Q85,-45 80,-60 Z" 
          fill="url(#brainGradient)" opacity="0.8"/>
    
    <!-- Central Connection -->
    <path d="M-10,-40 Q0,-50 10,-40 Q20,-30 25,-20 Q30,-10 30,0 Q30,10 25,20 Q20,30 10,40 Q0,50 -10,40 Q-20,30 -25,20 Q-30,10 -30,0 Q-30,-10 -25,-20 Q-20,-30 -10,-40 Z" 
          fill="url(#neuralGradient)" opacity="0.6"/>
  </g>
  
  <!-- Neural Network Nodes -->
  <g opacity="0.8">
    <!-- Left Hemisphere Nodes -->
    <circle cx="120" cy="90" r="3" fill="#4ecdc4"/>
    <circle cx="100" cy="110" r="3" fill="#4ecdc4"/>
    <circle cx="130" cy="130" r="3" fill="#4ecdc4"/>
    <circle cx="110" cy="150" r="3" fill="#4ecdc4"/>
    <circle cx="140" cy="170" r="3" fill="#4ecdc4"/>
    <circle cx="90" cy="180" r="3" fill="#4ecdc4"/>
    
    <!-- Right Hemisphere Nodes -->
    <circle cx="280" cy="90" r="3" fill="#4ecdc4"/>
    <circle cx="300" cy="110" r="3" fill="#4ecdc4"/>
    <circle cx="270" cy="130" r="3" fill="#4ecdc4"/>
    <circle cx="290" cy="150" r="3" fill="#4ecdc4"/>
    <circle cx="260" cy="170" r="3" fill="#4ecdc4"/>
    <circle cx="310" cy="180" r="3" fill="#4ecdc4"/>
    
    <!-- Central Nodes -->
    <circle cx="190" cy="100" r="3" fill="#4ecdc4"/>
    <circle cx="210" cy="100" r="3" fill="#4ecdc4"/>
    <circle cx="200" cy="120" r="3" fill="#4ecdc4"/>
    <circle cx="190" cy="140" r="3" fill="#4ecdc4"/>
    <circle cx="210" cy="140" r="3" fill="#4ecdc4"/>
    <circle cx="200" cy="160" r="3" fill="#4ecdc4"/>
    <circle cx="190" cy="180" r="3" fill="#4ecdc4"/>
    <circle cx="210" cy="180" r="3" fill="#4ecdc4"/>
  </g>
  
  <!-- Neural Connections -->
  <g opacity="0.4" stroke="#4ecdc4" stroke-width="1">
    <!-- Left Hemisphere Connections -->
    <line x1="120" y1="90" x2="100" y2="110"/>
    <line x1="100" y1="110" x2="130" y2="130"/>
    <line x1="130" y1="130" x2="110" y2="150"/>
    <line x1="110" y1="150" x2="140" y2="170"/>
    <line x1="140" y1="170" x2="90" y2="180"/>
    
    <!-- Right Hemisphere Connections -->
    <line x1="280" y1="90" x2="300" y2="110"/>
    <line x1="300" y1="110" x2="270" y2="130"/>
    <line x1="270" y1="130" x2="290" y2="150"/>
    <line x1="290" y1="150" x2="260" y2="170"/>
    <line x1="260" y1="170" x2="310" y2="180"/>
    
    <!-- Cross Hemisphere Connections -->
    <line x1="190" y1="100" x2="210" y2="100"/>
    <line x1="200" y1="120" x2="190" y2="140"/>
    <line x1="200" y1="120" x2="210" y2="140"/>
    <line x1="190" y1="140" x2="210" y2="140"/>
    <line x1="200" y1="160" x2="190" y2="180"/>
    <line x1="200" y1="160" x2="210" y2="180"/>
    
    <!-- Inter-hemisphere connections -->
    <line x1="140" y1="170" x2="260" y2="170"/>
    <line x1="130" y1="130" x2="270" y2="130"/>
  </g>
  
  <!-- Data Flow Animation -->
  <g opacity="0.6">
    <circle cx="120" cy="90" r="2" fill="#ff6b6b">
      <animate attributeName="opacity" values="0.3;1;0.3" dur="2s" repeatCount="indefinite"/>
    </circle>
    <circle cx="280" cy="90" r="2" fill="#ff6b6b">
      <animate attributeName="opacity" values="0.3;1;0.3" dur="2s" repeatCount="indefinite" begin="0.5s"/>
    </circle>
    <circle cx="200" cy="160" r="2" fill="#ff6b6b">
      <animate attributeName="opacity" values="0.3;1;0.3" dur="2s" repeatCount="indefinite" begin="1s"/>
    </circle>
  </g>
</svg> 