<svg width="200" height="200" viewBox="0 0 200 200" xmlns="http://www.w3.org/2000/svg">
  <defs>
    <linearGradient id="chipGradient" x1="0%" y1="0%" x2="100%" y2="100%">
      <stop offset="0%" style="stop-color:#2563eb;stop-opacity:1" />
      <stop offset="100%" style="stop-color:#667eea;stop-opacity:1" />
    </linearGradient>
    <linearGradient id="pinGradient" x1="0%" y1="0%" x2="100%" y2="100%">
      <stop offset="0%" style="stop-color:#4ecdc4;stop-opacity:1" />
      <stop offset="100%" style="stop-color:#44a08d;stop-opacity:1" />
    </linearGradient>
    <radialGradient id="glowGradient" cx="50%" cy="50%" r="50%">
      <stop offset="0%" style="stop-color:#2563eb;stop-opacity:0.2" />
      <stop offset="100%" style="stop-color:#2563eb;stop-opacity:0" />
    </radialGradient>
  </defs>
  
  <!-- Background Glow -->
  <circle cx="100" cy="100" r="80" fill="url(#glowGradient)"/>
  
  <!-- Main Chip Body -->
  <rect x="30" y="30" width="140" height="140" rx="10" fill="url(#chipGradient)" opacity="0.9"/>
  
  <!-- Circuit Pattern -->
  <g opacity="0.3" stroke="white" stroke-width="1">
    <!-- Horizontal Lines -->
    <line x1="40" y1="50" x2="160" y2="50"/>
    <line x1="40" y1="70" x2="160" y2="70"/>
    <line x1="40" y1="90" x2="160" y2="90"/>
    <line x1="40" y1="110" x2="160" y2="110"/>
    <line x1="40" y1="130" x2="160" y2="130"/>
    <line x1="40" y1="150" x2="160" y2="150"/>
    
    <!-- Vertical Lines -->
    <line x1="50" y1="40" x2="50" y2="160"/>
    <line x1="70" y1="40" x2="70" y2="160"/>
    <line x1="90" y1="40" x2="90" y2="160"/>
    <line x1="110" y1="40" x2="110" y2="160"/>
    <line x1="130" y1="40" x2="130" y2="160"/>
    <line x1="150" y1="40" x2="150" y2="160"/>
  </g>
  
  <!-- Central Processing Unit -->
  <circle cx="100" cy="100" r="25" fill="url(#pinGradient)" opacity="0.8"/>
  <circle cx="100" cy="100" r="15" fill="white" opacity="0.9"/>
  <circle cx="100" cy="100" r="8" fill="url(#pinGradient)"/>
  
  <!-- Connection Points -->
  <g opacity="0.8">
    <circle cx="60" cy="60" r="3" fill="url(#pinGradient)"/>
    <circle cx="140" cy="60" r="3" fill="url(#pinGradient)"/>
    <circle cx="60" cy="140" r="3" fill="url(#pinGradient)"/>
    <circle cx="140" cy="140" r="3" fill="url(#pinGradient)"/>
    <circle cx="100" cy="50" r="3" fill="url(#pinGradient)"/>
    <circle cx="100" cy="150" r="3" fill="url(#pinGradient)"/>
    <circle cx="50" cy="100" r="3" fill="url(#pinGradient)"/>
    <circle cx="150" cy="100" r="3" fill="url(#pinGradient)"/>
  </g>
  
  <!-- Data Flow Animation -->
  <g opacity="0.6">
    <circle cx="60" cy="60" r="2" fill="#ff6b6b">
      <animate attributeName="opacity" values="0.3;1;0.3" dur="2s" repeatCount="indefinite"/>
    </circle>
    <circle cx="100" cy="100" r="2" fill="#ff6b6b">
      <animate attributeName="opacity" values="0.3;1;0.3" dur="2s" repeatCount="indefinite" begin="0.5s"/>
    </circle>
    <circle cx="140" cy="140" r="2" fill="#ff6b6b">
      <animate attributeName="opacity" values="0.3;1;0.3" dur="2s" repeatCount="indefinite" begin="1s"/>
    </circle>
  </g>
  
  <!-- Heat Sink Pattern -->
  <g opacity="0.2" stroke="white" stroke-width="0.5">
    <line x1="35" y1="35" x2="165" y2="35"/>
    <line x1="35" y1="40" x2="165" y2="40"/>
    <line x1="35" y1="45" x2="165" y2="45"/>
    <line x1="35" y1="155" x2="165" y2="155"/>
    <line x1="35" y1="160" x2="165" y2="160"/>
    <line x1="35" y1="165" x2="165" y2="165"/>
  </g>
</svg> 