<svg width="400" height="300" viewBox="0 0 400 300" xmlns="http://www.w3.org/2000/svg">
  <defs>
    <linearGradient id="robotGradient" x1="0%" y1="0%" x2="100%" y2="100%">
      <stop offset="0%" style="stop-color:#2563eb;stop-opacity:1" />
      <stop offset="100%" style="stop-color:#667eea;stop-opacity:1" />
    </linearGradient>
    <linearGradient id="eyeGradient" x1="0%" y1="0%" x2="100%" y2="100%">
      <stop offset="0%" style="stop-color:#4ecdc4;stop-opacity:1" />
      <stop offset="100%" style="stop-color:#44a08d;stop-opacity:1" />
    </linearGradient>
    <radialGradient id="glowGradient" cx="50%" cy="50%" r="50%">
      <stop offset="0%" style="stop-color:#2563eb;stop-opacity:0.2" />
      <stop offset="100%" style="stop-color:#2563eb;stop-opacity:0" />
    </radialGradient>
  </defs>
  
  <!-- Background Glow -->
  <circle cx="200" cy="150" r="100" fill="url(#glowGradient)"/>
  
  <!-- Robot Head -->
  <g transform="translate(200, 150)">
    <!-- Main Head -->
    <rect x="-50" y="-60" width="100" height="80" rx="20" fill="url(#robotGradient)" opacity="0.9"/>
    
    <!-- Antenna -->
    <line x1="0" y1="-60" x2="0" y2="-80" stroke="url(#robotGradient)" stroke-width="3"/>
    <circle cx="0" cy="-80" r="5" fill="url(#eyeGradient)"/>
    
    <!-- Eyes -->
    <circle cx="-20" cy="-30" r="8" fill="url(#eyeGradient)"/>
    <circle cx="20" cy="-30" r="8" fill="url(#eyeGradient)"/>
    
    <!-- Eye Details -->
    <circle cx="-20" cy="-30" r="4" fill="white"/>
    <circle cx="20" cy="-30" r="4" fill="white"/>
    <circle cx="-20" cy="-30" r="2" fill="url(#eyeGradient)"/>
    <circle cx="20" cy="-30" r="2" fill="url(#eyeGradient)"/>
    
    <!-- Mouth -->
    <rect x="-15" y="10" width="30" height="3" rx="2" fill="white" opacity="0.8"/>
    
    <!-- Side Panels -->
    <rect x="-60" y="-40" width="10" height="60" rx="5" fill="url(#robotGradient)" opacity="0.7"/>
    <rect x="50" y="-40" width="10" height="60" rx="5" fill="url(#robotGradient)" opacity="0.7"/>
    
    <!-- Circuit Patterns -->
    <g opacity="0.3" stroke="white" stroke-width="1">
      <line x1="-40" y1="-50" x2="-30" y2="-50"/>
      <line x1="-40" y1="-40" x2="-30" y2="-40"/>
      <line x1="-40" y1="-30" x2="-30" y2="-30"/>
      <line x1="30" y1="-50" x2="40" y2="-50"/>
      <line x1="30" y1="-40" x2="40" y2="-40"/>
      <line x1="30" y1="-30" x2="40" y2="-30"/>
    </g>
  </g>
  
  <!-- Data Streams -->
  <g opacity="0.6">
    <!-- Left Data Stream -->
    <g transform="translate(100, 100)">
      <circle cx="0" cy="0" r="2" fill="#4ecdc4">
        <animate attributeName="cy" values="0;50;0" dur="2s" repeatCount="indefinite"/>
      </circle>
      <circle cx="0" cy="10" r="2" fill="#4ecdc4">
        <animate attributeName="cy" values="10;60;10" dur="2s" repeatCount="indefinite" begin="0.3s"/>
      </circle>
      <circle cx="0" cy="20" r="2" fill="#4ecdc4">
        <animate attributeName="cy" values="20;70;20" dur="2s" repeatCount="indefinite" begin="0.6s"/>
      </circle>
    </g>
    
    <!-- Right Data Stream -->
    <g transform="translate(300, 100)">
      <circle cx="0" cy="0" r="2" fill="#ff6b6b">
        <animate attributeName="cy" values="0;50;0" dur="2s" repeatCount="indefinite" begin="0.5s"/>
      </circle>
      <circle cx="0" cy="10" r="2" fill="#ff6b6b">
        <animate attributeName="cy" values="10;60;10" dur="2s" repeatCount="indefinite" begin="0.8s"/>
      </circle>
      <circle cx="0" cy="20" r="2" fill="#ff6b6b">
        <animate attributeName="cy" values="20;70;20" dur="2s" repeatCount="indefinite" begin="1.1s"/>
      </circle>
    </g>
  </g>
  
  <!-- Processing Indicators -->
  <g opacity="0.8">
    <circle cx="150" cy="200" r="3" fill="#4ecdc4">
      <animate attributeName="opacity" values="0.3;1;0.3" dur="1.5s" repeatCount="indefinite"/>
    </circle>
    <circle cx="170" cy="200" r="3" fill="#4ecdc4">
      <animate attributeName="opacity" values="0.3;1;0.3" dur="1.5s" repeatCount="indefinite" begin="0.3s"/>
    </circle>
    <circle cx="190" cy="200" r="3" fill="#4ecdc4">
      <animate attributeName="opacity" values="0.3;1;0.3" dur="1.5s" repeatCount="indefinite" begin="0.6s"/>
    </circle>
    <circle cx="210" cy="200" r="3" fill="#4ecdc4">
      <animate attributeName="opacity" values="0.3;1;0.3" dur="1.5s" repeatCount="indefinite" begin="0.9s"/>
    </circle>
    <circle cx="230" cy="200" r="3" fill="#4ecdc4">
      <animate attributeName="opacity" values="0.3;1;0.3" dur="1.5s" repeatCount="indefinite" begin="1.2s"/>
    </circle>
    <circle cx="250" cy="200" r="3" fill="#4ecdc4">
      <animate attributeName="opacity" values="0.3;1;0.3" dur="1.5s" repeatCount="indefinite" begin="1.5s"/>
    </circle>
  </g>
  
  <!-- Connection Lines -->
  <g opacity="0.4" stroke="#4ecdc4" stroke-width="1">
    <line x1="100" y1="100" x2="150" y2="150"/>
    <line x1="300" y1="100" x2="250" y2="150"/>
    <line x1="150" y1="150" x2="200" y2="150"/>
    <line x1="250" y1="150" x2="200" y2="150"/>
  </g>
</svg> 